<svg xmlns="http://www.w3.org/2000/svg" width="1200" height="900" viewBox="0 0 1200 900">
  <defs>
    <linearGradient id="g" x1="0" y1="0" x2="1" y2="1"><stop offset="0" stop-color="#1f130c"/><stop offset="0.56" stop-color="#0e0e0c"/><stop offset="1" stop-color="#b8894d" stop-opacity=".55"/></linearGradient>
    <radialGradient id="r" cx="82%" cy="12%" r="70%"><stop stop-color="#b8894d" stop-opacity=".5"/><stop offset="1" stop-color="#1f130c" stop-opacity="0"/></radialGradient>
    <filter id="shadow" x="-20%" y="-20%" width="140%" height="140%"><feDropShadow dx="0" dy="35" stdDeviation="35" flood-color="#000" flood-opacity=".42"/></filter>
  </defs>
  <rect width="1200" height="900" fill="url(#g)"/>
  <rect width="1200" height="900" fill="url(#r)"/>
  <path d="M90 120 C220 60 270 190 410 130 S650 70 770 150 S970 270 1110 170" fill="none" stroke="#f5efe3" stroke-opacity=".18" stroke-width="3"/>
  <g filter="url(#shadow)">
    <rect x="145" y="125" width="910" height="610" rx="42" fill="#111" fill-opacity=".78" stroke="#f5efe3" stroke-opacity=".16"/>
    <rect x="175" y="165" width="850" height="58" rx="24" fill="#f5efe3" fill-opacity=".08"/>
    <circle cx="215" cy="194" r="8" fill="#b8894d"/><circle cx="245" cy="194" r="8" fill="#f5efe3" fill-opacity=".35"/><circle cx="275" cy="194" r="8" fill="#f5efe3" fill-opacity=".25"/>
    <rect x="205" y="270" width="360" height="46" rx="23" fill="#b8894d" fill-opacity=".75"/>
    <rect x="205" y="344" width="520" height="26" rx="13" fill="#f5efe3" fill-opacity=".26"/>
    <rect x="205" y="392" width="430" height="22" rx="11" fill="#f5efe3" fill-opacity=".16"/>
    <rect x="205" y="480" width="160" height="54" rx="27" fill="#f5efe3"/>
    <rect x="615" y="270" width="330" height="300" rx="34" fill="#f5efe3" fill-opacity=".08" stroke="#f5efe3" stroke-opacity=".12"/>
    <rect x="650" y="310" width="260" height="34" rx="17" fill="#b8894d" fill-opacity=".65"/>
    <rect x="650" y="380" width="180" height="96" rx="22" fill="#f5efe3" fill-opacity=".17"/>
    <rect x="850" y="380" width="60" height="96" rx="22" fill="#f5efe3" fill-opacity=".11"/>
  </g>
  <text x="145" y="805" fill="#f5efe3" font-family="Arial, sans-serif" font-size="56" font-weight="800" letter-spacing="-3">Shruti Kabra Associates</text>
  <text x="148" y="850" fill="#b8894d" font-family="Arial, sans-serif" font-size="26" font-weight="700" letter-spacing="2">Architecture</text>
</svg>